<svg width="1em" height="1.2em" viewBox="0 0 243 284" fill="blue" xmlns="http://www.w3.org/2000/svg">
<g clip-path="url(#clip0_134_487)">
<path d="M207.492 190.302L240.505 181.078V156.186C240.505 154.972 239.99 153.807 239.072 152.949C238.155 152.09 236.911 151.608 235.614 151.608H7.43497C6.13785 151.608 4.89387 152.09 3.97667 152.949C3.05947 153.807 2.54419 154.972 2.54419 156.186V209.747C2.54332 210.37 2.67842 210.987 2.94123 211.56C3.20404 212.132 3.58901 212.649 4.07256 213.077L27.8173 234.124C28.7266 234.927 29.9298 235.373 31.1797 235.372H170.567C171.082 235.372 171.593 235.277 172.069 235.092C172.545 234.907 172.978 234.637 173.342 234.296C173.706 233.954 173.996 233.549 174.193 233.104C174.39 232.658 174.492 232.18 174.492 231.698C174.493 222.391 177.707 213.333 183.653 205.874C189.6 198.415 197.961 192.953 207.492 190.302Z" fill="currentColor"/>
<path d="M152.654 238.05C152.245 237.232 151.587 236.546 150.763 236.078C149.938 235.609 148.984 235.38 148.02 235.418H53.2493C52.2837 235.377 51.327 235.606 50.5 236.075C49.6731 236.543 49.013 237.23 48.6031 238.05L32.2924 276.653C31.2409 279.136 33.6007 281.711 36.9386 281.711H164.319C167.657 281.711 170.017 279.136 168.965 276.653L152.654 238.05Z" fill="currentColor"/>
<path d="M170.616 237.66H31.2287C29.3348 237.665 27.5122 236.985 26.1423 235.761L2.38532 214.737C1.66186 214.094 1.08597 213.32 0.692842 212.462C0.299718 211.604 0.0976149 210.68 0.0988829 209.747V156.186C0.0988829 154.364 0.871798 152.618 2.24759 151.33C3.62339 150.042 5.48937 149.319 7.43504 149.319H235.565C237.511 149.319 239.377 150.042 240.753 151.33C242.128 152.618 242.901 154.364 242.901 156.186V181.078C242.902 181.572 242.732 182.052 242.417 182.448C242.102 182.844 241.659 183.135 241.153 183.275L208.14 192.488C199.148 195.049 191.268 200.237 185.654 207.292C180.039 214.348 176.984 222.9 176.937 231.698C176.934 233.27 176.268 234.778 175.085 235.895C173.902 237.011 172.296 237.645 170.616 237.66ZM7.43504 153.897C6.78649 153.897 6.16449 154.138 5.70589 154.567C5.24729 154.996 4.98966 155.579 4.98966 156.186V209.747C4.9911 210.059 5.05888 210.367 5.18904 210.654C5.3192 210.941 5.50913 211.2 5.74773 211.418L29.5047 232.453C29.9568 232.855 30.5561 233.08 31.1798 233.083H170.567C170.761 233.083 170.953 233.047 171.133 232.977C171.312 232.908 171.476 232.806 171.613 232.677C171.75 232.548 171.859 232.396 171.934 232.228C172.008 232.06 172.046 231.88 172.046 231.698C172.095 221.915 175.49 212.403 181.735 204.558C187.98 196.713 196.745 190.947 206.746 188.105L237.962 179.373V156.186C237.962 155.579 237.704 154.996 237.245 154.567C236.787 154.138 236.165 153.897 235.516 153.897H7.43504Z" fill="currentColor"/>
<path d="M164.319 284H36.9385C35.7159 284.026 34.5052 283.771 33.4119 283.259C32.3186 282.746 31.3759 281.991 30.666 281.059C30.1038 280.301 29.7504 279.425 29.6374 278.508C29.5243 277.592 29.6551 276.663 30.018 275.805L46.3287 237.168C46.9183 235.921 47.8914 234.866 49.1239 234.138C50.3565 233.411 51.7926 233.043 53.2492 233.082H148.045C149.499 233.045 150.933 233.414 152.163 234.142C153.393 234.869 154.364 235.923 154.953 237.168L171.276 275.817C171.641 276.674 171.773 277.603 171.66 278.52C171.547 279.437 171.192 280.313 170.628 281.07C169.913 282.005 168.964 282.761 167.864 283.272C166.764 283.783 165.546 284.033 164.319 284ZM53.2492 237.66C52.7792 237.625 52.308 237.714 51.8889 237.916C51.4698 238.118 51.1194 238.426 50.8772 238.805L34.5664 277.488C34.4956 277.651 34.4719 277.829 34.4976 278.004C34.5234 278.179 34.5977 278.344 34.7132 278.484C34.9761 278.796 35.3156 279.044 35.703 279.208C36.0904 279.371 36.5142 279.445 36.9385 279.422H164.319C164.745 279.446 165.171 279.373 165.56 279.209C165.95 279.046 166.291 278.797 166.556 278.484C166.667 278.342 166.738 278.176 166.762 278.002C166.785 277.828 166.761 277.651 166.691 277.488L150.38 238.851C150.139 238.474 149.79 238.167 149.373 237.965C148.957 237.763 148.488 237.673 148.02 237.706L53.2492 237.66Z" fill="currentColor"/>
<path d="M230.148 122.515L227.031 125.445C225.392 126.972 223.174 127.829 220.862 127.829C218.55 127.829 216.332 126.972 214.694 125.445L120.546 37.321C118.497 35.4023 117.346 32.8006 117.346 30.0879C117.346 27.3752 118.497 24.7735 120.546 22.8549C122.606 20.9503 125.384 19.8823 128.28 19.8823C131.175 19.8823 133.954 20.9503 136.013 22.8549L230.161 110.979C231.793 112.511 232.708 114.586 232.706 116.749C232.704 118.913 231.784 120.987 230.148 122.515Z" fill="currentColor"/>
<path d="M220.856 130.126C219.388 130.13 217.934 129.86 216.578 129.334C215.222 128.807 213.992 128.034 212.957 127.059L118.81 38.9347C117.567 37.7722 116.581 36.392 115.908 34.8728C115.235 33.3536 114.889 31.7252 114.888 30.0806C114.887 26.7592 116.296 23.5734 118.804 21.2241C121.312 18.8747 124.715 17.5543 128.263 17.5532C131.812 17.5522 135.215 18.8705 137.725 21.2184L231.872 109.342C232.911 110.313 233.734 111.465 234.296 112.734C234.858 114.003 235.147 115.362 235.147 116.736C235.147 118.109 234.858 119.469 234.296 120.737C233.734 122.006 232.911 123.159 231.872 124.129L228.742 127.036C227.712 128.015 226.485 128.792 225.131 129.323C223.777 129.853 222.324 130.126 220.856 130.126ZM128.225 22.0996C126.547 22.1007 124.906 22.5675 123.512 23.441C122.117 24.3145 121.03 25.5556 120.389 27.0072C119.748 28.4588 119.581 30.0558 119.909 31.5962C120.237 33.1367 121.046 34.5514 122.233 35.6616L216.381 123.786C216.963 124.333 217.654 124.768 218.416 125.064C219.178 125.36 219.994 125.513 220.819 125.513C221.644 125.513 222.461 125.36 223.223 125.064C223.984 124.768 224.676 124.333 225.258 123.786L228.388 120.867C229.563 119.765 230.223 118.27 230.223 116.713C230.223 115.155 229.563 113.661 228.388 112.558L134.24 24.4343C133.453 23.691 132.516 23.1017 131.483 22.7009C130.45 22.3 129.343 22.0956 128.225 22.0996Z" fill="currentColor"/>
<path d="M159.899 5.36933L102.941 58.6835C98.5529 62.7909 98.5529 69.4503 102.941 73.5577L125.429 94.6066C129.817 98.714 136.931 98.714 141.32 94.6066L198.278 41.2925C202.666 37.1851 202.666 30.5256 198.278 26.4182L175.79 5.36933C171.402 1.26192 164.287 1.26193 159.899 5.36933Z" fill="currentColor"/>
<path d="M133.372 99.9693C131.575 99.9736 129.795 99.644 128.134 98.9996C126.474 98.3553 124.967 97.4089 123.701 96.2155L101.215 75.1687C98.6543 72.7657 97.2161 69.5101 97.2161 66.1159C97.2161 62.7218 98.6543 59.4661 101.215 57.0632L158.168 3.74239C160.738 1.34455 164.218 -0.00195312 167.846 -0.00195312C171.474 -0.00195312 174.954 1.34455 177.524 3.74239L200.009 24.8006C201.28 25.9889 202.288 27.4001 202.976 28.9535C203.664 30.5068 204.018 32.1718 204.018 33.8534C204.018 35.5349 203.664 37.1999 202.976 38.7533C202.288 40.3066 201.28 41.7178 200.009 42.9061L143.056 96.2155C141.787 97.4098 140.278 98.3566 138.616 99.0009C136.954 99.6453 135.171 99.9745 133.372 99.9693ZM167.852 4.57785C166.697 4.57482 165.552 4.7856 164.484 5.19806C163.416 5.61052 162.446 6.21652 161.629 6.98123L104.675 60.2906C103.859 61.0547 103.211 61.962 102.769 62.9605C102.327 63.9591 102.1 65.0294 102.1 66.1102C102.1 67.1911 102.327 68.2613 102.769 69.2599C103.211 70.2584 103.859 71.1657 104.675 71.9298L127.161 92.9881C128.813 94.5263 131.048 95.3898 133.378 95.3898C135.708 95.3898 137.944 94.5263 139.596 92.9881L196.549 39.6673C197.367 38.9039 198.016 37.9969 198.459 36.9982C198.902 35.9996 199.13 34.9289 199.13 33.8476C199.13 32.7664 198.902 31.6957 198.459 30.6971C198.016 29.6984 197.367 28.7914 196.549 28.028L174.063 6.98123C173.248 6.21738 172.28 5.61183 171.214 5.19938C170.148 4.78693 169.005 4.57571 167.852 4.57785Z" fill="currentColor"/>
<path d="M80.1241 57.8184C79.7953 57.8232 79.4688 57.7659 79.1642 57.6498C78.8596 57.5338 78.5831 57.3615 78.3512 57.1431L67.7994 47.2778C67.3405 46.8483 67.0828 46.2658 67.0828 45.6584C67.0828 45.051 67.3405 44.4685 67.7994 44.039C68.2582 43.6095 68.8806 43.3682 69.5295 43.3682C70.1784 43.3682 70.8008 43.6095 71.2596 44.039L81.7992 53.9157C82.1392 54.2358 82.3704 54.6428 82.4639 55.0855C82.5574 55.5283 82.509 55.987 82.3248 56.4041C82.1406 56.8211 81.8287 57.1779 81.4285 57.4296C81.0282 57.6812 80.5574 57.8165 80.0752 57.8184H80.1241Z" fill="currentColor"/>
<path d="M73.9372 71.1746H59.0203C58.3718 71.1746 57.7498 70.9334 57.2912 70.5041C56.8326 70.0749 56.575 69.4927 56.575 68.8856C56.575 68.2786 56.8326 67.6964 57.2912 67.2671C57.7498 66.8378 58.3718 66.5967 59.0203 66.5967H73.9372C74.5858 66.5967 75.2078 66.8378 75.6664 67.2671C76.125 67.6964 76.3826 68.2786 76.3826 68.8856C76.3826 69.4927 76.125 70.0749 75.6664 70.5041C75.2078 70.9334 74.5858 71.1746 73.9372 71.1746Z" fill="currentColor"/>
<path d="M94.3931 52.0272C93.7446 52.0272 93.1226 51.7861 92.664 51.3568C92.2054 50.9275 91.9478 50.3453 91.9478 49.7383V35.7758C91.9478 35.1687 92.2054 34.5865 92.664 34.1572C93.1226 33.728 93.7446 33.4868 94.3931 33.4868C95.0417 33.4868 95.6637 33.728 96.1223 34.1572C96.5809 34.5865 96.8385 35.1687 96.8385 35.7758V49.7383C96.8385 50.3453 96.5809 50.9275 96.1223 51.3568C95.6637 51.7861 95.0417 52.0272 94.3931 52.0272Z" fill="currentColor"/>
</g>
<defs>
<clipPath id="clip0_134_487">
<rect width="242.802" height="284" fill="white" transform="translate(0.0986328)"/>
</clipPath>
</defs>
</svg>
