<svg width="361" height="211" viewBox="0 0 361 211" fill="none" xmlns="http://www.w3.org/2000/svg">
<g clip-path="url(#clip0_134_510)">
<path d="M360.984 98.5062V111.154C360.984 113.46 360.068 115.672 358.437 117.302C356.806 118.933 354.595 119.849 352.289 119.849H287.827C287.208 119.848 286.595 119.969 286.023 120.206C285.451 120.442 284.931 120.789 284.493 121.226C284.055 121.664 283.708 122.183 283.471 122.755C283.234 123.326 283.112 123.939 283.112 124.558V142.377C283.112 145.38 281.61 148.084 278.907 149.285C277.575 149.847 276.114 150.032 274.684 149.82C273.253 149.608 271.909 149.007 270.797 148.084L225.741 110.537C222.437 107.855 222.437 101.826 225.741 99.123L270.797 61.5764C272.899 59.4792 276.203 59.1788 278.907 60.3803C281.31 61.8822 283.112 64.2798 283.112 67.2835V85.1021C283.112 85.721 283.234 86.3338 283.471 86.9055C283.708 87.4772 284.055 87.9966 284.493 88.434C284.931 88.8714 285.451 89.2182 286.023 89.4545C286.595 89.6909 287.208 89.8122 287.827 89.8115H352.305C354.608 89.8157 356.816 90.7337 358.443 92.3638C360.07 93.9939 360.984 96.203 360.984 98.5062Z" fill="#231F20"/>
<path d="M211.162 150.186L211.505 165.404L180.932 126.816L162.577 103.639C161.528 102.314 160.18 101.256 158.644 100.55C157.108 99.8448 155.427 99.5122 153.738 99.5797C152.049 99.6471 150.4 100.113 148.926 100.938C147.451 101.764 146.192 102.927 145.252 104.331L121.222 140.21C120.658 141.05 119.903 141.745 119.02 142.238C118.137 142.732 117.15 143.011 116.139 143.051C115.128 143.092 114.121 142.894 113.201 142.473C112.281 142.052 111.473 141.42 110.843 140.628L92.5042 117.467C91.4549 116.142 90.1074 115.084 88.5714 114.378C87.0355 113.673 85.3546 113.34 83.6657 113.408C81.9768 113.475 80.3277 113.941 78.8529 114.766C77.3781 115.592 76.1193 116.755 75.1791 118.159L33.6472 180.224C32.975 179.959 32.3919 179.509 31.9655 178.926C31.5392 178.343 31.2872 177.651 31.2388 176.93L30.8687 88.9909C39.1476 92.758 48.3697 93.9426 57.332 92.3903C66.2943 90.8379 74.5807 86.6206 81.1103 80.2884C87.6399 73.9563 92.1096 65.8032 93.9364 56.8929C95.7631 47.9825 94.8622 38.7284 91.3509 30.3377H206.957C207.909 30.3502 208.819 30.734 209.492 31.4072C210.165 32.0805 210.549 32.9901 210.561 33.9422V60.0746H240.599V33.9422C240.604 29.4834 239.729 25.0675 238.025 20.9472C236.321 16.8269 233.821 13.0832 230.668 9.93043C227.516 6.77762 223.772 4.27765 219.652 2.57365C215.531 0.869648 211.115 -0.00491962 206.657 2.08149e-05H33.9422C29.4834 -0.00491962 25.0675 0.869648 20.9472 2.57365C16.8269 4.27765 13.0832 6.77762 9.93043 9.93043C6.77762 13.0832 4.27765 16.8269 2.57365 20.9472C0.869648 25.0675 -0.00491962 29.4834 2.08149e-05 33.9422L0.600767 176.92C0.595826 181.378 1.47039 185.794 3.1744 189.915C4.8784 194.035 7.37837 197.779 10.5312 200.931C13.684 204.084 17.4277 206.584 21.548 208.288C25.6682 209.992 30.0842 210.867 34.5429 210.862H207.257C211.716 210.867 216.132 209.992 220.252 208.288C224.373 206.584 228.116 204.084 231.269 200.931C234.422 197.779 236.922 194.035 238.626 189.915C240.33 185.794 241.204 181.378 241.199 176.92L240.599 150.186H211.162Z" fill="#231F20"/>
<path d="M214.597 106.841C214.375 107.109 214.104 107.332 213.801 107.497C213.498 107.663 213.169 107.767 212.834 107.803L197.639 109.507C196.977 109.581 196.331 109.388 195.843 108.97C195.354 108.552 195.063 107.944 195.033 107.279C195.003 106.615 195.237 105.948 195.683 105.426C196.129 104.904 196.752 104.569 197.413 104.495L212.609 102.809C213.101 102.755 213.587 102.849 214.008 103.079C214.428 103.308 214.764 103.662 214.973 104.098C215.182 104.533 215.254 105.029 215.181 105.524C215.109 106.019 214.894 106.491 214.563 106.88L214.597 106.841Z" fill="#231F20"/>
<path d="M221.088 121.005L210.828 133.008C210.382 133.529 209.76 133.864 209.099 133.938C208.438 134.011 207.793 133.818 207.304 133.401C206.816 132.983 206.524 132.375 206.494 131.711C206.465 131.047 206.698 130.38 207.144 129.859L217.405 117.857C217.851 117.335 218.473 117 219.134 116.926C219.795 116.853 220.44 117.046 220.929 117.463C221.417 117.881 221.708 118.489 221.738 119.153C221.768 119.817 221.534 120.484 221.088 121.005Z" fill="#231F20"/>
<path d="M219.753 91.3762C219.307 91.8981 218.685 92.2326 218.025 92.3064C217.364 92.3801 216.718 92.1869 216.23 91.7693L204.995 82.1653C204.507 81.7477 204.216 81.1399 204.186 80.4757C204.156 79.8114 204.39 79.1451 204.836 78.6233C205.282 78.1014 205.904 77.7669 206.565 77.6932C207.225 77.6194 207.871 77.8126 208.36 78.2302L219.594 87.8343C220.082 88.2518 220.373 88.8596 220.403 89.5238C220.433 90.1881 220.199 90.8544 219.753 91.3762Z" fill="#231F20"/>
</g>
<defs>
<clipPath id="clip0_134_510">
<rect width="361" height="210.862" fill="white"/>
</clipPath>
</defs>
</svg>
